<svg width="1920" height="1080" viewBox="0 0 1920 1080" fill="none" xmlns="http://www.w3.org/2000/svg">
<g filter="url(#filter0_f_130_78)">
<path fill-rule="evenodd" clip-rule="evenodd" d="M2153.8 223.287C2190.08 313.642 2255.32 403.153 2237.78 497.222C2220.09 592.131 2135.11 649.072 2063.87 705.74C1995.99 759.734 1922.84 812.68 1836.92 816.099C1753.34 819.426 1673.55 774.716 1601.87 724.126C1536.43 677.938 1497.65 604.651 1446.52 540.566C1384.71 463.094 1280.86 407.996 1270.03 308.217C1259.24 208.846 1339.25 131.718 1393.71 54.1501C1444.82 -18.642 1497.76 -92.4181 1576.22 -127.854C1654.65 -163.278 1744.57 -166.233 1829.15 -142.53C1910.22 -119.813 1980.18 -64.3246 2038.86 1.79717C2094.4 64.3737 2122.07 144.263 2153.8 223.287Z" fill="url(#paint0_linear_130_78)" fill-opacity="0.78"/>
<path fill-rule="evenodd" clip-rule="evenodd" d="M386.212 1168.33C259.18 1155.65 118.633 1355.74 29.6455 1285.03C-76.5132 1200.69 184.06 1012.01 80.6317 925.536C-73.309 796.825 -453.39 946.99 -561.538 790.742C-641.18 675.676 -316.092 605.399 -219.882 491.362C-120.418 373.466 -163.026 154.068 7.06777 116.77C188.63 76.9579 334.795 237.956 460.368 342.198C539.371 407.782 503.083 527.556 581.474 593.606C651.035 652.217 794.05 619.53 861.189 679.921C941.279 751.962 967.901 851.968 977.551 949.878C991.696 1093.39 1097.54 1312.84 929.682 1374.85C736.491 1446.22 592.151 1188.88 386.212 1168.33Z" fill="url(#paint1_linear_130_78)" fill-opacity="0.78"/>
<path fill-rule="evenodd" clip-rule="evenodd" d="M712.789 -377.672C795.935 -400.322 880.015 -345.91 953.954 -305.505C1033.22 -262.187 1131.2 -218.907 1150.36 -138.557C1169.39 -58.7401 1080.45 6.04524 1046.33 81.8746C1015.26 150.932 1022.56 235.924 959.604 285.403C894.458 336.6 800.141 343.898 712.789 343.999C625.339 344.1 532.756 335.151 465.503 285.972C400.07 238.125 379.306 160.161 361.329 86.996C344.982 20.4676 327.233 -54.1048 367.685 -112.124C406.273 -167.467 504.656 -155.497 560.205 -198.241C625.716 -248.65 629.65 -355.023 712.789 -377.672Z" fill="url(#paint2_linear_130_78)" fill-opacity="0.78"/>
</g>
<defs>
<filter id="filter0_f_130_78" x="-578.978" y="-388" width="2824.7" height="1780.32" filterUnits="userSpaceOnUse" color-interpolation-filters="sRGB">
<feFlood flood-opacity="0" result="BackgroundImageFix"/>
<feBlend mode="normal" in="SourceGraphic" in2="BackgroundImageFix" result="shape"/>
<feGaussianBlur stdDeviation="2.5" result="effect1_foregroundBlur_130_78"/>
</filter>
<linearGradient id="paint0_linear_130_78" x1="1612.62" y1="-141.981" x2="1853.5" y2="837.999" gradientUnits="userSpaceOnUse">
<stop stop-color="#2C9A93"/>
<stop offset="1" stop-color="#294C60"/>
</linearGradient>
<linearGradient id="paint1_linear_130_78" x1="967.948" y1="694.047" x2="707.343" y2="1281.49" gradientUnits="userSpaceOnUse">
<stop stop-color="#2C9A93"/>
<stop offset="1" stop-color="#294C60"/>
</linearGradient>
<linearGradient id="paint2_linear_130_78" x1="393.5" y1="-265.5" x2="868.4" y2="344.467" gradientUnits="userSpaceOnUse">
<stop stop-color="#2C9A93"/>
<stop offset="1" stop-color="#294C60"/>
</linearGradient>
</defs>
</svg>
