<svg width="1920" height="864" viewBox="0 0 1920 864" fill="none" xmlns="http://www.w3.org/2000/svg">
<g filter="url(#filter0_d_135_119)">
<path d="M1920 793.728C1882.35 773.58 1852.15 782.09 1814.5 792.622C1776.85 803.149 1741.77 815.574 1704.12 823.374C1666.47 831.169 1632 833.881 1582.5 817.701C1541 804.136 1520 796.219 1472.5 792.622C1429.5 789.367 1401.5 792.98 1354.5 805.221C1304.5 818.243 1248.5 823.723 1196.5 814.5C1152.61 806.716 1121.21 803.122 1084.5 796C1051 789.5 1018.76 777 968.502 777C925.502 777 894.435 780.679 859.502 787C807.002 796.5 793.002 801.431 758.502 805C724.002 808.569 713.502 805.5 667.502 801C621.502 796.5 587.002 793.224 548.502 797.082C507.502 801.191 472.414 816.078 434.766 823.723C397.121 831.372 358.65 828.195 321.002 819.5C283.354 810.8 245.002 803.44 208.502 797.082C169.002 790.202 122.002 784 99.002 787C76.002 790 48.502 796.825 0.00195312 819.5V-6.10352e-05C37.65 -6.10352e-05 75.2947 -6.10352e-05 112.943 -6.10352e-05C150.591 -6.10352e-05 188.236 -6.10352e-05 225.884 -6.10352e-05C263.532 -6.10352e-05 301.177 -6.10352e-05 338.825 -6.10352e-05C376.473 -6.10352e-05 414.121 -6.10352e-05 451.766 -6.10352e-05C489.414 -6.10352e-05 527.062 -6.10352e-05 564.707 -6.10352e-05C602.355 -6.10352e-05 640.003 -6.10352e-05 677.648 -6.10352e-05C715.296 -6.10352e-05 752.944 -6.10352e-05 790.589 -6.10352e-05C828.237 -6.10352e-05 865.885 -6.10352e-05 903.53 -6.10352e-05C941.178 -6.10352e-05 978.826 -6.10352e-05 1016.47 -6.10352e-05C1054.12 -6.10352e-05 1091.77 -6.10352e-05 1129.42 -6.10352e-05C1167.06 -6.10352e-05 1204.71 -6.10352e-05 1242.36 -6.10352e-05C1280 -6.10352e-05 1317.65 -6.10352e-05 1355.3 -6.10352e-05C1392.94 -6.10352e-05 1430.59 -6.10352e-05 1468.24 -6.10352e-05C1505.88 -6.10352e-05 1543.53 -6.10352e-05 1581.18 -6.10352e-05C1618.83 -6.10352e-05 1656.47 -6.10352e-05 1694.12 -6.10352e-05C1731.77 -6.10352e-05 1769.41 -6.10352e-05 1807.06 -6.10352e-05C1844.71 -6.10352e-05 1882.35 -6.10352e-05 1920 -6.10352e-05V793.728Z" fill="url(#paint0_linear_135_119)" fill-opacity="0.25" shape-rendering="crispEdges"/>
</g>
<path d="M1920 593.783C1848.5 583.024 1783.34 579.814 1718.5 611.363C1652.93 643.271 1564.45 659.266 1493.34 628.454C1422.23 597.646 1350.12 555.983 1279 552.931C1207.89 549.879 1137.78 585.438 1066.67 612.938C995.559 640.438 924.445 619.021 853.334 605.178C782.224 591.338 711.114 585.072 640.003 574.146C568.889 563.216 482.002 551.965 403.002 556.794C324.002 561.623 304.502 605.178 216.002 612.938C144.934 619.169 82.002 609.848 0.00195312 585.768V0C71.1124 0 142.223 0 213.337 0C284.447 0 355.558 0 426.668 0C497.779 0 568.889 0 640.003 0C711.114 0 782.224 0 853.334 0C924.445 0 995.559 0 1066.67 0C1137.78 0 1208.89 0 1280 0C1351.11 0 1422.23 0 1493.34 0C1564.45 0 1635.56 0 1706.67 0C1777.78 0 1848.89 0 1920 0V593.783Z" fill="url(#paint1_linear_135_119)" fill-opacity="0.3"/>
<path d="M1950.53 385.624C1877.18 414.392 1803.83 443.161 1731.15 437.617C1658.46 432.074 1571.63 394.037 1505.87 380.381C1412.07 360.901 1368.62 363.782 1295.65 372.928C1222.69 382.074 1149.26 414.744 1076.43 416.888C1003.6 419.037 930.573 430.821 857.979 420.69C785.385 410.559 713.215 378.519 640.467 376.299C567.716 374.076 494.39 401.681 421.239 420.26C348.088 438.838 274.061 418.579 200.054 412.448C128.821 406.547 66.9936 423.278 -5.91416 429.311L-6.62536 -38C66.1381 -36.5894 138.901 -35.1787 211.668 -33.7681C284.432 -32.3574 357.195 -30.9468 429.959 -29.5362C502.722 -28.1256 575.486 -26.715 648.253 -25.3043C721.016 -23.8937 793.78 -22.4831 866.543 -21.0725C939.307 -19.6618 1012.07 -18.2512 1084.84 -16.8405C1157.6 -15.4299 1230.36 -14.0193 1303.13 -12.6087C1375.89 -11.198 1448.66 -9.78739 1521.42 -8.37678C1594.18 -6.96616 1666.95 -5.55555 1739.71 -4.14493C1812.48 -2.73425 1885.24 -1.32363 1958.01 0.0869829L1950.53 385.624Z" fill="url(#paint2_linear_135_119)" fill-opacity="0.3"/>
<path d="M1955.04 272.869C1882.33 291.483 1809.61 310.101 1736.42 290.397C1663.23 270.692 1591.2 247.897 1517.96 224.801C1444.73 201.702 1370.13 206.171 1297.54 234.965C1224.96 263.76 1152.75 281.65 1079.83 283.807C1006.91 285.964 933.448 244.521 860.567 249.553C787.685 254.588 715.384 306.09 642.507 311.467C569.626 316.84 496.172 276.08 422.964 255.021C349.757 233.962 270.399 252.611 200.611 272.739C120.593 295.818 40.289 255.311 -4.71051 255.345L-4.49836 -8.38778C68.4348 -9.29924 127.9 -7.63147 200.837 -8.54298C273.77 -9.45445 346.703 -10.3659 419.636 -11.2774C492.569 -12.1888 565.503 -13.1003 638.439 -14.0118C711.372 -14.9233 784.306 -15.8348 857.239 -16.7462C930.172 -17.6577 1003.11 -18.5692 1076.04 -19.4807C1148.98 -20.3921 1221.91 -21.3036 1294.84 -22.2151C1367.78 -23.1266 1440.71 -24.038 1513.64 -24.9495C1586.58 -25.861 1659.51 -26.7724 1732.44 -27.6839C1805.38 -28.5954 1878.31 -29.5069 1951.25 -30.4183L1955.04 272.869Z" fill="url(#paint3_linear_135_119)" fill-opacity="0.45"/>
<defs>
<filter id="filter0_d_135_119" x="-29.998" y="-26.0001" width="1980" height="889.563" filterUnits="userSpaceOnUse" color-interpolation-filters="sRGB">
<feFlood flood-opacity="0" result="BackgroundImageFix"/>
<feColorMatrix in="SourceAlpha" type="matrix" values="0 0 0 0 0 0 0 0 0 0 0 0 0 0 0 0 0 0 127 0" result="hardAlpha"/>
<feOffset dy="4"/>
<feGaussianBlur stdDeviation="15"/>
<feComposite in2="hardAlpha" operator="out"/>
<feColorMatrix type="matrix" values="0 0 0 0 0.194934 0 0 0 0 0.430647 0 0 0 0 0.482389 0 0 0 0.4 0"/>
<feBlend mode="normal" in2="BackgroundImageFix" result="effect1_dropShadow_135_119"/>
<feBlend mode="normal" in="SourceGraphic" in2="effect1_dropShadow_135_119" result="shape"/>
</filter>
<linearGradient id="paint0_linear_135_119" x1="0.00196124" y1="-9.03941e-05" x2="1726.17" y2="-302.417" gradientUnits="userSpaceOnUse">
<stop stop-color="#5AAAA6"/>
<stop offset="1" stop-color="#4C8099"/>
</linearGradient>
<linearGradient id="paint1_linear_135_119" x1="-6.99811" y1="-6.82748e-05" x2="1691.76" y2="-384.171" gradientUnits="userSpaceOnUse">
<stop stop-color="#5AAAA6"/>
<stop offset="1" stop-color="#4C8099"/>
</linearGradient>
<linearGradient id="paint2_linear_135_119" x1="-6.62573" y1="-38.0001" x2="1659.91" y2="-527.218" gradientUnits="userSpaceOnUse">
<stop stop-color="#5AAAA6"/>
<stop offset="1" stop-color="#4C8099"/>
</linearGradient>
<linearGradient id="paint3_linear_135_119" x1="-17.9659" y1="-5.80853" x2="1484.82" y2="-712.902" gradientUnits="userSpaceOnUse">
<stop stop-color="#5AAAA6"/>
<stop offset="1" stop-color="#4C8099"/>
</linearGradient>
</defs>
</svg>
